<svg xmlns="http://www.w3.org/2000/svg" xmlns:xlink="http://www.w3.org/1999/xlink" aria-hidden="true" role="img" class="iconify iconify--logos" width="31.88" height="32" preserveAspectRatio="xMidYMid meet" viewBox="0 0 256 257"><defs><linearGradient id="IconifyId1813088fe1fbc01fb466" x1="-.828%" x2="57.636%" y1="7.652%" y2="78.411%"><stop offset="0%" stop-color="#41D1FF"></stop><stop offset="100%" stop-color="#BD34FE"></stop></linearGradient><linearGradient id="IconifyId1813088fe1fbc01fb467" x1="43.376%" x2="50.316%" y1="2.242%" y2="89.03%"><stop offset="0%" stop-color="#FFEA83"></stop><stop offset="8.333%" stop-color="#FFDD35"></stop><stop offset="100%" stop-color="#FFA800"></stop></linearGradient></defs><path fill="url(#IconifyId1813088fe1fbc01fb466)" d="M255.153 37.938L134.897 252.976c-2.483 4.44-8.862 4.466-11.382.048L.875 37.958c-4.338-.676-6.163-4.995-4.043-8.886L50.434 87.973c2.8-5.724 8.268-9.242 14.423-9.242h146.29c6.157 0 11.626 3.518 14.426 9.242l53.567 109.099c2.12 3.891.295 8.21-4.043 8.886Z"></path><path fill="url(#IconifyId1813088fe1fbc01fb467)" d="M149.121 33.292l-60.53 123.21H73.016l60.531-123.21c1.946-3.96 5.847-6.408 10.29-6.408h47.305c-4.443 0-8.345 2.448-10.29 6.408Z"></path></svg>